<?xml version="1.0" encoding="UTF-8"?>
<svg width="47px" height="47px" viewBox="0 0 47 47" version="1.1" xmlns="http://www.w3.org/2000/svg" xmlns:xlink="http://www.w3.org/1999/xlink">
    <!-- Generator: Sketch 51.3 (57544) - http://www.bohemiancoding.com/sketch -->
    <title>Group 6</title>
    <desc>Created with Sketch.</desc>
    <defs></defs>
    <g id="Page-1" stroke="none" stroke-width="1" fill="none" fill-rule="evenodd">
        <g id="One-World-Strong---Home-FULL" transform="translate(-780.000000, -5017.000000)" fill-rule="nonzero">
            <g id="Group-6" transform="translate(780.000000, 5017.000000)">
                <g id="Instagram_6_">
                    <circle id="Oval" fill="#ffffff" cx="23.5" cy="23.5" r="23.5"></circle>
                    <path d="M33.2425068,13 L15.7574932,13 C14.253406,13 13,14.1939891 13,15.7021858 L13,33.2978142 C13,34.8060109 14.253406,36 15.7574932,36 L33.2425068,36 C34.746594,36 36,34.8060109 36,33.2978142 L36,15.7021858 C35.9373297,14.1939891 34.746594,13 33.2425068,13 Z M29.4822888,16.5819672 C29.4822888,16.204918 29.7956403,15.8907104 30.1716621,15.8907104 L32.3024523,15.8907104 C32.6784741,15.8907104 32.9918256,16.204918 32.9918256,16.5819672 L32.9918256,18.7185792 C32.9918256,19.0956284 32.6784741,19.4098361 32.3024523,19.4098361 L30.1716621,19.4098361 C29.7956403,19.4098361 29.4822888,19.0956284 29.4822888,18.7185792 L29.4822888,16.5819672 Z M24.4686649,20.1010929 C26.9128065,20.1010929 28.9182561,22.0491803 28.9182561,24.5 C28.9182561,26.9508197 26.9128065,28.8989071 24.4686649,28.8989071 C22.0245232,28.8989071 20.0817439,26.9508197 20.0817439,24.5 C20.0817439,22.1120219 22.0245232,20.1010929 24.4686649,20.1010929 Z M33.8065395,33.1092896 C33.8065395,33.4863388 33.493188,33.8005464 33.1171662,33.8005464 L15.8828338,33.8005464 C15.506812,33.8005464 15.1934605,33.4863388 15.1934605,33.1092896 L15.1934605,22.3005464 L18.0762943,22.3005464 C17.7002725,22.8661202 17.5749319,23.8715847 17.5749319,24.5 C17.5749319,28.3333333 20.7084469,31.4754098 24.5940054,31.4754098 C28.479564,31.4754098 31.613079,28.3333333 31.613079,24.5 C31.613079,23.8715847 31.5504087,22.8661202 31.0490463,22.3005464 L33.9318801,22.3005464 L33.9318801,33.1092896 L33.8065395,33.1092896 Z" id="Instagram_2_" fill="#113249"></path>
                </g>
            </g>
        </g>
    </g>
</svg>