<?xml version="1.0" encoding="UTF-8"?>
<svg width="48px" height="48px" viewBox="0 0 48 48" version="1.1" xmlns="http://www.w3.org/2000/svg" xmlns:xlink="http://www.w3.org/1999/xlink">
    <!-- Generator: Sketch 51.3 (57544) - http://www.bohemiancoding.com/sketch -->
    <title>Facebook_5_</title>
    <desc>Created with Sketch.</desc>
    <defs></defs>
    <g id="Page-1" stroke="none" stroke-width="1" fill="none" fill-rule="evenodd">
        <g id="One-World-Strong---Home-FULL" transform="translate(-620.000000, -5018.000000)" fill="#ffffff" fill-rule="nonzero">
            <g id="Facebook_5_" transform="translate(620.000000, 5018.000000)">
                <path d="M24,0 C10.7368421,0 0,10.7368421 0,24 C0,37.2631579 10.7368421,48 24,48 C37.2631579,48 48,37.2631579 48,24 C48,10.7368421 37.2631579,0 24,0 Z M35.6842105,34.1052632 C35.6842105,34.8 35.3684211,35.3052632 34.6105263,35.3052632 L28.7368421,35.3052632 L28.7368421,26.4631579 L31.7684211,26.4631579 L32.2105263,22.6736842 L28.7368421,22.6736842 L28.7368421,20.7157895 C28.7368421,19.7052632 28.9894737,18.8842105 30.4421053,18.8842105 L32.5263158,18.8842105 L32.5263158,15.8526316 C31.8947368,15.7894737 30.8842105,15.7263158 29.6210526,15.7263158 C26.9684211,15.7263158 24.9473684,17.3684211 24.9473684,20.3368421 L24.9473684,22.6736842 L21.7894737,22.6736842 L21.7894737,26.4631579 L24.9473684,26.4631579 L24.9473684,35.3052632 L14.0210526,35.3052632 C13.3263158,35.3052632 12.9473684,34.8631579 12.9473684,34.1052632 L12.9473684,13.4526316 C12.9473684,12.7578947 13.3263158,11.8736842 14.0210526,11.8736842 L34.6736842,11.8736842 C35.3684211,11.8736842 35.7473684,12.7578947 35.7473684,13.4526316 L35.7473684,34.1052632 L35.6842105,34.1052632 Z" id="Shape"></path>
            </g>
        </g>
    </g>
</svg>