<?xml version="1.0" encoding="UTF-8"?>
<svg width="47px" height="47px" viewBox="0 0 47 47" version="1.1" xmlns="http://www.w3.org/2000/svg" xmlns:xlink="http://www.w3.org/1999/xlink">
    <!-- Generator: Sketch 51.3 (57544) - http://www.bohemiancoding.com/sketch -->
    <title>Group 3</title>
    <desc>Created with Sketch.</desc>
    <defs></defs>
    <g id="Page-1" stroke="none" stroke-width="1" fill="none" fill-rule="evenodd">
        <g id="One-World-Strong---Home-FULL" transform="translate(-703.000000, -5017.000000)" fill-rule="nonzero">
            <g id="Group-3" transform="translate(703.000000, 5017.000000)">
                <g id="Twitter_6_">
                    <circle id="Oval" fill="#ffffff" cx="23.5" cy="23.5" r="23.5"></circle>
                    <path d="M34.2026667,14.3821656 C33.2826667,14.955414 32.3013333,15.4012739 31.1973333,15.5923567 C30.3386667,14.6369427 29.112,14 27.7626667,14 C25.1866667,14 23.04,16.2292994 23.04,19.0318471 C23.04,19.4140127 23.1013333,19.7961783 23.1626667,20.1783439 C19.2373333,19.9872611 15.8026667,17.9490446 13.472,14.955414 C13.0426667,15.7197452 12.8586667,16.5477707 12.8586667,17.5031847 C12.8586667,19.2229299 13.7173333,20.7515924 14.944,21.7070064 C14.1466667,21.7070064 13.472,21.4522293 12.7973333,21.0700637 L12.7973333,21.133758 C12.7973333,23.5541401 14.392,25.5923567 16.6,26.0382166 C16.232,26.1656051 15.8026667,26.2292994 15.3733333,26.2292994 C15.0666667,26.2292994 14.76,26.2292994 14.5146667,26.1656051 C15.128,28.1401274 16.8453333,29.6050955 18.9306667,29.6687898 C17.336,31.0063694 15.312,31.8343949 13.104,31.8343949 C12.736,31.8343949 12.368,31.8343949 12,31.7707006 C14.0853333,33.1719745 16.5386667,34 19.2373333,34 C27.8853333,34 32.6693333,26.3566879 32.6693333,19.7324841 C32.6693333,19.5414013 32.6693333,19.2866242 32.6693333,19.0955414 C33.5893333,18.3949045 34.3866667,17.5031847 35,16.4840764 C34.1413333,16.866242 33.2213333,17.1847134 32.3013333,17.2484076 C33.0986667,16.4840764 33.8346667,15.5286624 34.2026667,14.3821656 Z" id="Twitter_2_" fill="#113249"></path>
                </g>
            </g>
        </g>
    </g>
</svg>