<?xml version="1.0" encoding="UTF-8" standalone="no"?>
<svg width="753px" height="343px" viewBox="0 0 753 343" version="1.1" xmlns="http://www.w3.org/2000/svg" xmlns:xlink="http://www.w3.org/1999/xlink">
    <!-- Generator: Sketch 50.2 (55047) - http://www.bohemiancoding.com/sketch -->
    <title>Group</title>
    <desc>Created with Sketch.</desc>
    <defs></defs>
    <g id="Page-1" stroke="none" stroke-width="1" fill="none" fill-rule="evenodd">
        <g id="One-World-Strong---Home-FULL" transform="translate(-251.000000, -177.000000)">
            <g id="Group" transform="translate(251.000000, 177.000000)">
                <polyline id="Fill-1" fill="#74C3B7" points="113.660377 3.5505618 136.381478 3.5505618 136.381478 13.3989544 170.85673 47.6735374 170.85673 3.5505618 193.57783 3.5505618 193.57783 101.191011 170.85673 101.191011 170.85673 82.4007778 136.381478 48.1261949 136.381478 101.191011 113.660377 101.191011 113.660377 3.5505618"></polyline>
                <g id="Group-5" fill="#74C3B7">
                    <polyline id="Fill-2" points="207.159738 3.46520037 286.564474 3.46520037 286.564474 26.0669355 229.735069 26.0669355 229.735069 41.4178106 267.643342 41.4178106 267.643342 63.9547057 230.647996 63.9547057 230.517222 79.3055808 286.564474 79.3055808 286.564474 101.907316 207.159738 101.907316 207.159738 3.46520037"></polyline>
                    <path d="M51.7616001,22.2588312 C68.5206013,22.2588312 82.1547264,35.9089026 82.1547264,52.6862582 C82.1547264,69.4636137 68.5206013,83.1124382 51.7616001,83.1124382 C35.0038443,83.1124382 21.3709648,69.4636137 21.3709648,52.6862582 C21.3709648,35.9089026 35.0038443,22.2588312 51.7616001,22.2588312 M51.7616001,0.864117978 C23.1756462,0.864117978 0,24.0656233 0,52.6862582 C0,81.306893 23.1756462,104.508398 51.7616001,104.508398 C80.350045,104.508398 103.524446,81.306893 103.524446,52.6862582 C103.524446,24.0656233 80.350045,0.864117978 51.7616001,0.864117978" id="Fill-4"></path>
                </g>
                <polyline id="Fill-6" fill="#368340" points="5.32783019 124.269663 27.7243698 124.269663 27.7243698 199.521928 42.9358781 199.521928 42.9358781 124.269663 65.3966691 124.269663 65.3966691 199.521928 80.6081774 199.521928 80.6081774 124.269663 103.004717 124.269663 103.004717 221.910112 5.32783019 221.910112 5.32783019 124.269663"></polyline>
                <path d="M223.768868,124.269663 L303.686321,124.269663 L303.686321,184.26657 L279.192375,184.26657 L303.686321,208.497351 L303.686321,221.910112 L280.964864,221.910112 L246.490325,187.635529 L246.490325,221.910112 L223.768868,221.910112 L223.768868,124.269663 Z M246.490325,161.913205 L280.964864,161.913205 L280.964864,146.68734 L246.490325,146.68734 L246.490325,161.913205 Z" id="Fill-7" fill="#368340"></path>
                <polyline id="Fill-8" fill="#368340" points="316.117925 124.269663 338.820152 124.269663 338.820152 199.521928 396.035377 199.521928 396.035377 221.910112 316.117925 221.910112 316.117925 124.269663"></polyline>
                <path d="M408.466981,124.269663 L470.1938,124.269663 L488.384434,142.21642 L488.384434,203.962119 L470.1938,221.910112 L408.466981,221.910112 L408.466981,124.269663 Z M431.187725,199.492435 L465.66369,199.492435 L465.66369,146.68734 L431.187725,146.68734 L431.187725,199.492435 Z" id="Fill-9" fill="#368340"></path>
                <path d="M165.162736,141.974844 C181.836562,141.974844 195.402403,155.53546 195.402403,172.202867 C195.402403,188.870273 181.836562,202.428412 165.162736,202.428412 C148.488909,202.428412 134.923069,188.870273 134.923069,172.202867 C134.923069,155.53546 148.488909,141.974844 165.162736,141.974844 M165.162736,120.719101 C136.718712,120.719101 113.660377,143.768557 113.660377,172.202867 C113.660377,200.635938 136.718712,223.685393 165.162736,223.685393 C193.60676,223.685393 216.665094,200.635938 216.665094,172.202867 C216.665094,143.768557 193.60676,120.719101 165.162736,120.719101" id="Fill-10" fill="#368340"></path>
                <path d="M610.925768,260.916698 C627.599594,260.916698 641.165434,274.477641 641.165434,291.145448 C641.165434,307.813255 627.599594,321.374198 610.925768,321.374198 C594.251941,321.374198 580.684862,307.813255 580.684862,291.145448 C580.684862,274.477641 594.251941,260.916698 610.925768,260.916698 M610.925768,239.662921 C582.479265,239.662921 559.42217,262.711693 559.42217,291.145448 C559.42217,319.579203 582.479265,342.629213 610.925768,342.629213 C639.369791,342.629213 662.426887,319.579203 662.426887,291.145448 C662.426887,262.711693 639.369791,239.662921 610.925768,239.662921" id="Fill-11" fill="#75BA4A"></path>
                <polyline id="Fill-12" fill="#75BA4A" points="5.32783019 243.213483 20.1038653 243.213483 45.5165899 268.027746 70.7312476 243.213483 85.245283 243.213483 85.245283 340.853933 62.5227571 340.853933 62.5227571 288.891417 48.0124825 303.209526 42.5631379 303.209526 28.0478489 288.891417 28.0478489 340.853933 5.32783019 340.853933 5.32783019 243.213483"></polyline>
                <path d="M97.6768868,243.213483 L177.59434,243.213483 L177.59434,340.853933 L154.871814,340.853933 L154.871814,322.065744 L120.396906,322.065744 L120.396906,340.853933 L97.6768868,340.853933 L97.6768868,243.213483 Z M120.396906,299.646078 L154.871814,299.646078 L154.871814,265.630675 L120.396906,265.630675 L120.396906,299.646078 Z" id="Fill-13" fill="#75BA4A"></path>
                <path d="M191.801887,243.213483 L271.71934,243.213483 L271.71934,303.209526 L247.222987,303.209526 L271.71934,327.441219 L271.71934,340.853933 L248.996814,340.853933 L214.521906,306.580021 L214.521906,340.853933 L191.801887,340.853933 L191.801887,243.213483 Z M214.521906,280.857889 L248.996814,280.857889 L248.996814,265.631911 L214.521906,265.631911 L214.521906,280.857889 Z" id="Fill-14" fill="#75BA4A"></path>
                <path d="M282.375,243.213483 L362.292453,243.213483 L362.292453,340.853933 L339.569927,340.853933 L339.569927,322.065744 L305.095019,322.065744 L305.095019,340.853933 L282.375,340.853933 L282.375,243.213483 Z M305.095019,299.646078 L339.569927,299.646078 L339.569927,265.630675 L305.095019,265.630675 L305.095019,299.646078 Z" id="Fill-15" fill="#75BA4A"></path>
                <polyline id="Fill-16" fill="#75BA4A" points="376.5 243.213483 456.417453 243.213483 456.417453 265.631911 428.244329 265.631911 428.244329 340.853933 405.59075 340.853933 405.59075 265.631911 376.5 265.631911 376.5 243.213483"></polyline>
                <polyline id="Fill-17" fill="#75BA4A" points="468.849057 241.438202 491.552383 241.438202 491.552383 279.775298 526.061938 279.775298 526.061938 241.438202 548.766509 241.438202 548.766509 340.853933 526.061938 340.853933 526.061938 302.515586 491.552383 302.515586 491.552383 340.853933 468.849057 340.853933 468.849057 241.438202"></polyline>
                <polyline id="Fill-18" fill="#75BA4A" points="730.277474 243.213483 730.277474 287.334865 695.802566 253.060151 695.802566 243.213483 673.082547 243.213483 673.082547 340.853933 695.802566 340.853933 695.802566 287.79003 730.277474 322.064745 730.277474 340.853933 753 340.853933 753 243.213483 730.277474 243.213483"></polyline>
            </g>
        </g>
    </g>
</svg>