<?xml version="1.0" encoding="UTF-8"?>
<svg width="634px" height="535px" viewBox="0 0 634 535" version="1.1" xmlns="http://www.w3.org/2000/svg" xmlns:xlink="http://www.w3.org/1999/xlink">
    <!-- Generator: Sketch 51.3 (57544) - http://www.bohemiancoding.com/sketch -->
    <title>Group</title>
    <desc>Created with Sketch.</desc>
    <defs></defs>
    <g id="Page-1" stroke="none" stroke-width="1" fill="none" fill-rule="evenodd" opacity="0.301548549">
        <g id="One-World-Strong---Home-page-Copy-4" transform="translate(-806.000000, 0.000000)">
            <g id="Group" transform="translate(804.000000, -593.000000)">
                <path d="M940.17,187.848 C1021.026,281.595 1069.992,403.596 1069.992,536.826 C1069.992,831.828 829.998,1071.822 534.996,1071.822 C401.76,1071.822 279.75,1022.856 186.003,941.982 C284.184,1055.817 429.402,1128 591.174,1128 C886.167,1128 1126.17,888.006 1126.17,593.004 C1126.17,431.247 1053.996,286.029 940.17,187.848" id="Fill-1" fill="#73C2B6"></path>
                <path d="M591.174,58.014 C724.41,58.014 846.417,106.98 940.167,187.845 C841.986,74.01 696.768,1.836 534.996,1.836 C240.003,1.836 0,241.83 0,536.832 C0,698.589 72.174,843.804 186,941.988 C105.135,848.238 56.178,726.237 56.178,593.01 C56.178,298.008 296.181,58.014 591.174,58.014" id="Fill-3" fill="#75B94A"></path>
                <path d="M1069.989,536.829 C1069.989,403.599 1021.032,281.598 940.167,187.848 C846.417,106.974 724.41,58.011 591.171,58.011 C296.178,58.011 56.175,298.014 56.175,593.007 C56.175,726.234 105.135,848.235 186,941.985 C279.75,1022.859 401.766,1071.822 535.002,1071.822 C829.995,1071.822 1069.989,831.828 1069.989,536.829 M168.54,536.829 C168.54,334.764 332.931,170.364 535.002,170.364 C650.31,170.364 753.297,223.956 820.518,307.482 C904.044,374.712 957.636,477.69 957.636,593.007 C957.636,795.078 793.245,959.469 591.171,959.469 C475.854,959.469 372.87,905.877 305.649,822.342 C222.123,755.121 168.54,652.137 168.54,536.829" id="Fill-5" fill="#368240"></path>
                <path d="M591.174,959.466 C793.245,959.466 957.627,795.075 957.627,593.013 C957.627,477.696 904.044,374.709 820.518,307.479 C871.092,370.317 901.452,450.078 901.452,536.826 C901.452,738.897 737.058,903.288 534.996,903.288 C448.239,903.288 368.481,872.919 305.643,822.348 C372.87,905.874 475.857,959.466 591.174,959.466" id="Fill-6" fill="#75B94A"></path>
                <path d="M591.174,226.545 C677.928,226.545 757.68,256.905 820.518,307.488 C753.297,223.962 650.313,170.37 534.996,170.37 C332.931,170.37 168.543,334.761 168.543,536.832 C168.543,652.14 222.126,755.118 305.643,822.345 C255.078,759.51 224.718,679.758 224.718,593.01 C224.718,390.939 389.103,226.545 591.174,226.545" id="Fill-7" fill="#73C2B6"></path>
            </g>
        </g>
    </g>
</svg>