<?xml version="1.0" encoding="UTF-8" standalone="no"?>
<svg width="109px" height="28px" viewBox="0 0 109 28" version="1.1" xmlns="http://www.w3.org/2000/svg" xmlns:xlink="http://www.w3.org/1999/xlink">
    <!-- Generator: Sketch 50.2 (55047) - http://www.bohemiancoding.com/sketch -->
    <title>#OWM Copy</title>
    <desc>Created with Sketch.</desc>
    <defs></defs>
    <g id="Page-1" stroke="none" stroke-width="1" fill="none" fill-rule="evenodd">
        <g id="One-World-Strong---Home-FULL" transform="translate(-252.000000, -538.000000)" fill="#4A4A4A">
            <g id="#OWM-Copy" transform="translate(252.000000, 538.000000)">
                <polyline id="Fill-19" points="55.8739496 0.903225806 61.9650821 0.903225806 61.9650821 21.0908505 66.1012881 21.0908505 66.1012881 0.903225806 72.2096362 0.903225806 72.2096362 21.0908505 76.3464799 21.0908505 76.3464799 0.903225806 82.4369748 0.903225806 82.4369748 27.0967742 55.8739496 27.0967742 55.8739496 0.903225806"></polyline>
                <path d="M38.0122809,5.78001005 C42.6083189,5.78001005 46.3486771,9.46714762 46.3486771,13.9993608 C46.3486771,18.5328524 42.6083189,22.21999 38.0122809,22.21999 C33.4155947,22.21999 29.676533,18.5328524 29.676533,13.9993608 C29.676533,9.46714762 33.4155947,5.78001005 38.0122809,5.78001005 M38.0122809,0 C30.1704937,0 23.8151261,6.26711109 23.8151261,13.9993608 C23.8151261,21.7322497 30.1704937,28 38.0122809,28 C45.8534199,28 52.210084,21.7322497 52.210084,13.9993608 C52.210084,6.26711109 45.8534199,0 38.0122809,0" id="Fill-20"></path>
                <polyline id="Fill-21" points="87.0168067 0.903225806 91.0815643 0.903225806 98.0718743 7.56022276 105.00722 0.903225806 109 0.903225806 109 27.0967742 102.749748 27.0967742 102.749748 13.1563061 98.7582765 16.9982616 97.2585302 16.9982616 93.2664043 13.1563061 93.2664043 27.0967742 87.0168067 27.0967742 87.0168067 0.903225806"></polyline>
                <path d="M2.3204887,19.9343761 L0,19.9343761 L0,16.1367228 L2.99187322,16.1367228 L3.75515828,11.7441741 L1.06834381,11.7441741 L1.06834381,7.94590039 L4.427181,7.94590039 L5.18982786,3.61290323 L9.22132597,3.61290323 L8.45740271,7.94590039 L12.8845837,7.94590039 L13.6472306,3.61290323 L17.6780905,3.61290323 L16.9141672,7.94590039 L19.2352941,7.94590039 L19.2352941,11.7441741 L16.2434209,11.7441741 L15.4794976,16.1367228 L18.1663121,16.1367228 L18.1663121,19.9343761 L14.8081131,19.9343761 L14.0148327,24.3870968 L9.98397283,24.3870968 L10.7778914,19.9343761 L6.35134861,19.9343761 L5.55679183,24.3870968 L1.52720832,24.3870968 L2.3204887,19.9343761 Z M11.4492759,16.1367228 L12.212561,11.7441741 L7.78601819,11.7441741 L7.02209493,16.1367228 L11.4492759,16.1367228 Z" id="Fill-22"></path>
            </g>
        </g>
    </g>
</svg>