<?xml version="1.0" encoding="UTF-8" standalone="no"?>
<svg width="239px" height="102px" viewBox="0 0 239 102" version="1.1" xmlns="http://www.w3.org/2000/svg" xmlns:xlink="http://www.w3.org/1999/xlink">
    <!-- Generator: Sketch 50.2 (55047) - http://www.bohemiancoding.com/sketch -->
    <title>Group 3</title>
    <desc>Created with Sketch.</desc>
    <defs></defs>
    <g id="Page-1" stroke="none" stroke-width="1" fill="none" fill-rule="evenodd">
        <g id="One-World-Strong---Home-page-Copy-4" transform="translate(-135.000000, -21.000000)">
            <g id="Group-3" transform="translate(135.000000, 21.000000)">
                <g id="Group">
                    <path d="M85.0153723,16.9862553 C92.3268191,25.4633777 96.7545957,36.495383 96.7545957,48.5427766 C96.7545957,75.2184894 75.0530106,96.9200745 48.3772979,96.9200745 C36.3293617,96.9200745 25.2965426,92.4922979 16.8194202,85.1792234 C25.6974894,95.4728138 38.8289043,102 53.4572234,102 C80.1321223,102 101.834521,80.2984149 101.834521,53.6227021 C101.834521,38.9957394 95.3081489,25.8643245 85.0153723,16.9862553" id="Fill-1" fill="#73C2B6"></path>
                    <path d="M53.4572234,5.24594681 C65.5051596,5.24594681 76.5377074,9.6737234 85.0151011,16.985984 C76.1370319,6.69239362 63.005617,0.166021277 48.3772979,0.166021277 C21.7023989,0.166021277 0,21.8676064 0,48.5433191 C0,63.1702819 6.52637234,76.3014255 16.8191489,85.179766 C9.5068883,76.7023723 5.07992553,65.670367 5.07992553,53.6232447 C5.07992553,26.9475319 26.7823245,5.24594681 53.4572234,5.24594681" id="Fill-3" fill="#75B94A"></path>
                    <path d="M96.7543245,48.5430479 C96.7543245,36.4956543 92.3273617,25.4636489 85.0151011,16.9862553 C76.5377074,9.67318085 65.5051596,5.24567553 53.4569521,5.24567553 C26.7820532,5.24567553 5.07965426,26.9480745 5.07965426,53.6229734 C5.07965426,65.6700957 9.5068883,76.7021011 16.8191489,85.1794947 C25.2965426,92.4925691 36.3299043,96.9200745 48.3778404,96.9200745 C75.0527394,96.9200745 96.7543245,75.2184894 96.7543245,48.5430479 M15.2403191,48.5430479 C15.2403191,30.2712128 30.1054628,15.4052553 48.3778404,15.4052553 C58.8046277,15.4052553 68.1172819,20.2513404 74.1957766,27.8042234 C81.7486596,33.8835319 86.5947447,43.1953723 86.5947447,53.6229734 C86.5947447,71.8953511 71.7296011,86.7604947 53.4569521,86.7604947 C43.0293511,86.7604947 33.7169681,81.9144096 27.6384734,74.3607128 C20.0855904,68.2822181 15.2403191,58.9698351 15.2403191,48.5430479" id="Fill-5" fill="#368240"></path>
                    <path d="M53.4572234,86.7602234 C71.7296011,86.7602234 86.5939309,71.8950798 86.5939309,53.623516 C86.5939309,43.1959149 81.7486596,33.8832606 74.1957766,27.8039521 C78.7689574,33.4861117 81.5142766,40.6985426 81.5142766,48.5427766 C81.5142766,66.8151543 66.6488617,81.6802979 48.3772979,81.6802979 C40.53225,81.6802979 33.3200904,78.9341649 27.6379309,74.3612553 C33.7169681,81.9141383 43.0296223,86.7602234 53.4572234,86.7602234" id="Fill-6" fill="#75B94A"></path>
                    <path d="M53.4572234,20.4854521 C61.302,20.4854521 68.513617,23.2307713 74.1957766,27.804766 C68.1172819,20.251883 58.8048989,15.4057979 48.3772979,15.4057979 C30.1054628,15.4057979 15.2405904,30.2709415 15.2405904,48.5433191 C15.2405904,58.9701064 20.0858617,68.2819468 27.6379309,74.360984 C23.0655638,68.6790957 20.3202447,61.4674787 20.3202447,53.6232447 C20.3202447,35.350867 35.1848457,20.4854521 53.4572234,20.4854521" id="Fill-7" fill="#73C2B6"></path>
                </g>
                <polyline id="Fill-8" fill="#000000" points="134.381132 21.7610619 138.227506 21.7610619 138.227506 23.4907473 144.063329 29.5114834 144.063329 21.7610619 147.909434 21.7610619 147.909434 38.9115044 144.063329 38.9115044 144.063329 35.6114795 138.227506 29.5907434 138.227506 38.9115044 134.381132 38.9115044 134.381132 21.7610619"></polyline>
                <polyline id="Fill-9" fill="#000000" points="183.083019 63.2831858 186.929317 63.2831858 186.929317 65.0130354 192.765023 71.033385 192.765023 63.2831858 196.611321 63.2831858 196.611321 80.4336283 192.765023 80.4336283 192.765023 77.1327144 186.929317 71.1123648 186.929317 80.4336283 183.083019 80.4336283 183.083019 63.2831858"></polyline>
                <polyline id="Fill-10" fill="#000000" points="150.615094 21.7610619 164.143396 21.7610619 164.143396 25.698745 154.4612 25.698745 154.4612 28.3734963 160.920119 28.3734963 160.920119 32.2998957 154.616302 32.2998957 154.594528 34.9743718 164.143396 34.9743718 164.143396 38.9115044 150.615094 38.9115044 150.615094 21.7610619"></polyline>
                <polyline id="Fill-11" fill="#000000" points="115.441509 42.5221239 119.37082 42.5221239 119.37082 55.7399091 122.039424 55.7399091 122.039424 42.5221239 125.979444 42.5221239 125.979444 55.7399091 128.648322 55.7399091 128.648322 42.5221239 132.577358 42.5221239 132.577358 59.6725664 115.441509 59.6725664 115.441509 42.5221239"></polyline>
                <path d="M153.320755,42.5221239 L166.849057,42.5221239 L166.849057,53.0604504 L162.702961,53.0604504 L166.849057,57.3163447 L166.849057,59.6725664 L163.002951,59.6725664 L157.167129,53.6521201 L157.167129,59.6725664 L153.320755,59.6725664 L153.320755,42.5221239 Z M157.167129,49.1342399 L163.002951,49.1342399 L163.002951,46.4598926 L157.167129,46.4598926 L157.167129,49.1342399 Z" id="Fill-12" fill="#000000"></path>
                <polyline id="Fill-13" fill="#000000" points="168.65283 42.5221239 172.495805 42.5221239 172.495805 55.7399091 182.181132 55.7399091 182.181132 59.6725664 168.65283 59.6725664 168.65283 42.5221239"></polyline>
                <path d="M184.886792,42.5221239 L195.335691,42.5221239 L198.415094,45.6747605 L198.415094,56.5199297 L195.335691,59.6725664 L184.886792,59.6725664 L184.886792,42.5221239 Z M188.73309,55.7339721 L194.568797,55.7339721 L194.568797,46.459067 L188.73309,46.459067 L188.73309,55.7339721 Z" id="Fill-14" fill="#000000"></path>
                <polyline id="Fill-15" fill="#000000" points="115.441509 63.2831858 128.947231 63.2831858 128.969811 67.2208913 119.287884 67.2208913 119.287884 69.8954709 128.969811 69.8954709 128.969811 80.4336283 115.441509 80.4336283 115.441509 76.4959228 125.123437 76.5066553 125.123437 73.8213432 115.441509 73.8213432 115.441509 63.2831858"></polyline>
                <polyline id="Fill-16" fill="#000000" points="131.675472 63.2831858 145.203774 63.2831858 145.203774 67.2208913 140.43485 67.2208913 140.43485 80.4336283 136.599766 80.4336283 136.599766 67.2208913 131.675472 67.2208913 131.675472 63.2831858"></polyline>
                <path d="M147.909434,63.2831858 L161.437736,63.2831858 L161.437736,73.8213432 L157.291641,73.8213432 L161.437736,78.0774445 L161.437736,80.4336283 L157.591631,80.4336283 L151.755808,74.4132787 L151.755808,80.4336283 L147.909434,80.4336283 L147.909434,63.2831858 Z M151.755808,69.8954709 L157.591631,69.8954709 L157.591631,67.2208913 L151.755808,67.2208913 L151.755808,69.8954709 Z" id="Fill-17" fill="#000000"></path>
                <polyline id="Fill-18" fill="#000000" points="198.415094 63.2831858 211.943396 63.2831858 211.943396 67.2208913 202.2612 67.2208913 202.2612 76.4959228 208.096753 76.4959228 208.096753 69.8954709 211.943396 69.8954709 211.943396 80.4336283 198.415094 80.4336283 198.415094 63.2831858"></polyline>
                <path d="M123.558628,25.4875708 C126.478822,25.4875708 128.85385,27.8653387 128.85385,30.7870603 C128.85385,33.7096074 126.478822,36.0876505 123.558628,36.0876505 C120.638159,36.0876505 118.262581,33.7096074 118.262581,30.7870603 C118.262581,27.8653387 120.638159,25.4875708 123.558628,25.4875708 M123.558628,21.7610619 C118.577639,21.7610619 114.539623,25.8020569 114.539623,30.7870603 C114.539623,35.7728892 118.577639,39.8141593 123.558628,39.8141593 C128.539617,39.8141593 132.577358,35.7728892 132.577358,30.7870603 C132.577358,25.8020569 128.539617,21.7610619 123.558628,21.7610619" id="Fill-19" fill="#000000"></path>
                <path d="M143.4,45.346253 C146.320149,45.346253 148.695417,47.724021 148.695417,50.6457426 C148.695417,53.5682896 146.320149,55.9460575 143.4,55.9460575 C140.479851,55.9460575 138.104583,53.5682896 138.104583,50.6457426 C138.104583,47.724021 140.479851,45.346253 143.4,45.346253 M143.4,41.619469 C138.419086,41.619469 134.381132,45.6607391 134.381132,50.6457426 C134.381132,55.6315715 138.419086,59.6725664 143.4,59.6725664 C148.380914,59.6725664 152.418868,55.6315715 152.418868,50.6457426 C152.418868,45.6607391 148.380914,41.619469 143.4,41.619469" id="Fill-20" fill="#000000"></path>
                <path d="M172.260652,67.0099698 C175.180527,67.0099698 177.555519,69.3874626 177.555519,72.3091842 C177.555519,75.2320064 175.180527,77.6094992 172.260652,77.6094992 C169.340503,77.6094992 166.965236,75.2320064 166.965236,72.3091842 C166.965236,69.3874626 169.340503,67.0099698 172.260652,67.0099698 M172.260652,63.2831858 C167.279739,63.2831858 163.241509,67.3241808 163.241509,72.3091842 C163.241509,77.2952883 167.279739,81.3362832 172.260652,81.3362832 C177.241291,81.3362832 181.279245,77.2952883 181.279245,72.3091842 C181.279245,67.3241808 177.241291,63.2831858 172.260652,63.2831858" id="Fill-21" fill="#000000"></path>
                <polyline id="Fill-23" fill="#000000" points="220.598987 75.0176991 219.609305 75.9952393 218.62014 75.0176991 216.45283 75.0176991 216.45283 77.150977 219.647359 80.4336283 222.766038 77.2077456 222.766038 75.0176991 220.598987 75.0176991"></polyline>
                <polyline id="Fill-25" fill="#000000" points="236.832521 75.0176991 235.842878 75.9952393 234.85479 75.0176991 232.686792 75.0176991 232.686792 77.1517407 235.881191 80.4336283 239 77.2077456 239 75.0176991 236.832521 75.0176991"></polyline>
                <polyline id="Fill-22" fill="#000000" points="228.715451 75.0176991 227.725768 75.9952393 226.736862 75.0176991 224.569811 75.0176991 224.569811 77.150977 227.76434 80.4336283 230.883019 77.2077456 230.883019 75.0176991 228.715451 75.0176991"></polyline>
                <path d="M219.179932,64.1858407 L219.725236,64.1858407 L220.530734,65.4693659 L221.335652,64.1858407 L221.864151,64.1858407 L221.864151,66.8938053 L221.370132,66.8938053 L221.370132,64.9686646 L220.548119,66.2698408 L220.495964,66.2698408 L219.673082,64.9686646 L219.673082,66.8938053 L219.179932,66.8938053 L219.179932,64.1858407 Z M217.275133,64.660948 L216.45283,64.660948 L216.45283,64.1858407 L218.60855,64.1858407 L218.60855,64.660948 L217.785378,64.660948 L217.785378,66.8938053 L217.275133,66.8938053 L217.275133,64.660948 Z" id="Fill-27" fill="#000000"></path>
            </g>
        </g>
    </g>
</svg>